<?xml version="1.0" standalone="no"?>
<!DOCTYPE svg PUBLIC "-//W3C//DTD SVG 20010904//EN"
 "http://www.w3.org/TR/2001/REC-SVG-20010904/DTD/svg10.dtd">
<svg version="1.0" xmlns="http://www.w3.org/2000/svg"
 width="700.000000pt" height="700.000000pt" viewBox="0 0 700.000000 700.000000"
 preserveAspectRatio="xMidYMid meet">
<metadata>
Created by potrace 1.14, written by Peter Selinger 2001-2017
</metadata>
<g transform="translate(0.000000,700.000000) scale(0.100000,-0.100000)"
fill="#000000" stroke="none">
<path d="M2263 6799 c-99 -18 -194 -81 -249 -164 -52 -78 -70 -156 -69 -296
l0 -116 -278 -1 c-154 0 -295 -3 -315 -7 -21 -3 -50 -8 -67 -10 -93 -14 -230
-64 -320 -119 -267 -160 -440 -431 -472 -736 -10 -97 -9 -4239 2 -4305 4 -27
8 -59 10 -70 5 -34 43 -151 66 -202 138 -307 426 -524 759 -569 30 -4 1018 -8
2195 -8 l2140 0 105 27 c402 103 682 420 736 832 10 78 11 4174 1 4285 -41
460 -417 838 -872 876 -44 3 -192 7 -330 8 l-249 1 -2 130 c-1 177 -29 256
-122 342 -217 204 -564 103 -642 -186 -6 -25 -12 -99 -13 -165 l-2 -121 -776
-1 -776 -1 -1 127 c-1 103 -5 141 -22 192 -20 57 -69 131 -110 166 -91 77
-216 111 -327 91z m-322 -1359 c1 -3 2 -63 4 -135 2 -105 7 -141 25 -188 83
-219 335 -317 541 -212 90 47 155 122 190 223 16 45 20 84 21 187 l1 130 776
0 776 0 2 -123 c1 -79 8 -144 18 -180 47 -160 185 -270 349 -277 182 -9 327
89 392 265 12 32 17 83 18 180 l2 135 245 0 c135 0 264 -3 286 -8 23 -4 58
-23 81 -43 67 -57 69 -71 68 -524 l-1 -395 -2232 -2 c-2071 -1 -2233 0 -2236
15 -3 10 -4 195 -2 412 1 343 4 400 18 432 20 44 73 89 121 103 35 10 535 15
537 5z m3794 -3035 c0 -1196 -2 -1292 -18 -1320 -25 -45 -50 -71 -88 -91 -33
-18 -102 -19 -2094 -22 -1133 -1 -2079 0 -2101 3 -56 8 -117 50 -146 99 l-23
41 -1 1275 c-1 701 0 1282 2 1290 3 13 260 15 2237 15 l2233 0 -1 -1290z"/>
<path d="M2239 3291 c-115 -29 -202 -98 -253 -203 -96 -197 -17 -422 182 -520
62 -31 74 -33 167 -33 92 0 105 3 165 31 275 133 303 510 50 674 -97 62 -200
79 -311 51z"/>
<path d="M3458 3304 c-2 -1 -20 -5 -41 -8 -125 -20 -256 -144 -291 -276 -53
-202 60 -410 255 -471 138 -43 282 -12 385 83 211 194 138 554 -130 648 -47
17 -169 33 -178 24z"/>
<path d="M4585 3295 c-119 -28 -217 -106 -269 -215 -28 -60 -31 -73 -30 -165
0 -86 4 -108 26 -156 104 -227 384 -299 589 -152 206 147 207 463 2 619 -86
66 -214 94 -318 69z"/>
<path d="M2196 2111 c-313 -125 -338 -553 -41 -705 256 -131 565 51 568 335 1
73 -7 108 -36 171 -62 137 -186 218 -343 223 -68 3 -91 -1 -148 -24z"/>
<path d="M3400 2125 c-288 -78 -384 -441 -172 -650 25 -25 76 -60 112 -77 58
-28 75 -32 155 -32 65 0 104 5 140 19 259 100 337 415 156 626 -26 29 -66 59
-114 83 -65 33 -85 38 -153 41 -44 1 -99 -3 -124 -10z"/>
<path d="M4605 2135 c-134 -39 -191 -75 -250 -155 -183 -249 -19 -598 290
-615 224 -12 403 151 410 375 7 213 -156 387 -370 395 -38 2 -74 2 -80 0z"/>
</g>
</svg>
